<?xml version="1.0" encoding="UTF-8"?>
<svg id="Calque_2" data-name="Calque 2" xmlns="http://www.w3.org/2000/svg" viewBox="0 0 937.36 380.24">
  <defs>
    <style>
      .cls-1 {
        font-family: LEMONMILKProFTR-Regular, 'LEMON MILK Pro FTR';
        font-size: 134.24px;
      }

      .cls-1, .cls-2, .cls-3 {
        fill: #2c5697;
      }

      .cls-2 {
        font-family: SweetAlmondRegular, 'Sweet Almond';
        font-size: 106.51px;
      }

      .cls-4 {
        letter-spacing: -.07em;
      }
    </style>
  </defs>
  <g id="Calque_1-2" data-name="Calque 1">
    <path class="cls-3" d="m347.9,112.55c.2,14.65-2.55,31.27-7.15,47.61-4.01,14.27-10.02,27.71-16.69,40.94-9.43,18.7-20.84,36.13-33.35,52.82-7.62,10.17-16.11,19.7-24.52,29.26-5.74,6.52-11.8,12.79-18.07,18.81-6.63,6.36-13.37,12.68-20.62,18.32-12.45,9.68-25.06,19.19-38.11,28.02-8.34,5.64-17.48,10.18-26.5,14.74-12.85,6.51-26.15,11.94-40.37,14.77-11.7,2.33-23.55,2.85-35.38,2.02-9.42-.67-18.06-4.47-26.09-9.34-19.6-11.88-32.38-29.05-38.29-51.14-1.77-6.61-2.62-13.49-3.67-20.28-.94-6.02-3.04-11.53-6.38-16.59C4.37,269.89.94,255.72.18,240.86c-1.23-24.09,3.95-47.11,12.59-69.41,6.35-16.38,14.65-31.78,24.12-46.57,11.46-17.91,25.28-33.79,40.46-48.61,14.68-14.33,30.81-26.72,48.08-37.73,22.25-14.19,45.81-25.54,71.32-32.45C219.68-.11,242.92-1.98,266.49,2.36c20.97,3.86,39.05,13.09,53.96,28.31,8.6,8.78,14.63,19.29,19.1,30.69,6.15,15.68,8.44,32.03,8.35,51.18ZM19.03,275.79c.38,0,.77,0,1.15,0,.89-2.83,1.72-5.69,2.67-8.5,10.06-29.82,23.51-57.96,42.25-83.33,7.31-9.89,15.03-19.54,23.32-28.61,8.16-8.93,17.01-17.28,26.01-25.39,14.09-12.68,29.41-23.76,45.71-33.46,17.87-10.63,36.41-19.75,56.64-25.07,15.54-4.09,31.21-5.9,47.18-3.13,10.33,1.79,20.13,5.1,28.12,12.1,8.87,7.77,14.65,17.63,18.2,28.91,3.75,11.92,3.81,24.13,3.46,36.4-.04,1.29-1.1,3.67-1.57,3.64-1.62-.09-3.9-.59-4.63-1.75-1.75-2.77-3.33-5.89-3.96-9.07-1.24-6.23-1.69-12.62-2.64-18.91-1.41-9.26-5.63-16.33-14.73-20.31-9.37-4.1-18.84-6.17-29.12-5.66-12.99.64-25.49,3.41-37.66,7.66-17.82,6.23-34.84,14.21-50.69,24.57-12.98,8.48-25.33,17.77-36.64,28.37-5.84,5.48-11.68,10.99-17.05,16.92-8.86,9.8-17.91,19.52-25.8,30.08-7.78,10.42-14.73,21.55-21.12,32.88-9.64,17.08-16.91,35.22-21.25,54.43-1.29,5.73-1.22,5.74,4.45,6.45,1.1.14,2.2.4,3.31.44,15.53.56,31.02-.48,46.23-3.41,14.19-2.73,28.31-6.13,42.18-10.2,28.14-8.25,54.83-20.07,80.19-34.81,5.25-3.05,10.29-6.47,15.48-9.61.82-.49,2.3-.96,2.9-.57,4.73,3.09,5.41,10.37,1.44,14.4-1.2,1.22-2.57,2.29-3.96,3.3-15.33,11.06-31.88,19.97-49.04,27.81-23.19,10.59-47.08,19.09-71.97,24.76-12.97,2.95-26.09,4.69-39.34,5.41-10.56.57-21.02-.54-31.39-2.6-3.26-.65-4.41.12-4.5,3.42-.09,3.32.14,6.67.5,9.98,1.5,13.97,8.15,24.32,21.31,30.09,8.94,3.92,18.38,4.13,27.77,3.29,17.83-1.59,34.66-7.13,50.89-14.45,21.22-9.58,40.93-21.7,59.16-36.17,10.58-8.4,21.16-16.85,31.19-25.89,8.92-8.05,17.44-16.62,25.48-25.55,12.59-13.98,24.41-28.59,35.09-44.15,11.27-16.43,21.12-33.59,28.69-52,8.83-21.44,14.74-43.47,12.75-67.04-1.58-18.74-9.05-34.39-23.32-46.71-9.5-8.2-20.43-13.76-32.4-17.32-14.63-4.35-29.53-5.55-44.74-4.28-16.38,1.36-32.19,5.08-47.57,10.63-20.07,7.24-38.91,16.94-56.72,28.77-16.59,11.02-32.06,23.38-46.01,37.52-7.86,7.97-14.91,16.77-22.06,25.41-13.29,16.07-24.14,33.75-32.5,52.8-4.7,10.71-8.62,21.86-11.83,33.11-4.23,14.83-4.88,30.15-3.08,45.47.74,6.36,2.34,12.62,3.55,18.93Z"/>
    <g>
      <text class="cls-1" transform="translate(402.71 192.65)"><tspan x="0" y="0">O</tspan><tspan class="cls-4" x="119.42" y="0">K</tspan><tspan x="196.64" y="0">OHO</tspan></text>
      <text class="cls-2" transform="translate(540.2 296.99) scale(.84 1)"><tspan x="0" y="0">rigth now!</tspan></text>
    </g>
  </g>
</svg>